***************************************************************
 
http://www.torrentforce.org/imghost/3/greyshadow_tfbanner.png

***************************************************************
 
http://www.torrentforce.org/imghost/4/greyshadow_transformerstrilogy.jpg

***************************************************************
***************************************************************
***************************************************************
 
http://www.torrentforce.org/imghost/4/greyshadow_transformers1.jpg

***************************************************************

FILM TITLE: Transformers (2007) 

***************************************************************

Genre:  Action | Sci-Fi | Thriller    

Rated PG-13 for intense sequences of sci-fi action violence, 
brief sexual humor, and language

Release:  27 July 2007 (UK)

Director: Michael Bay

Writer: Roberto Orci (screenplay), Alex Kurtzman

Stars: Shia LaBeouf, Megan Fox and Josh Duhamel

Country: USA 

Language: English | Spanish

Plot:
An ancient struggle re-erupts on Earth between two extraterrestrial 
clans, the heroic Autobots and the evil Decepticons, with a clue to 
the ultimate power held by a young teenager.

IMDB Rating: 7.2/10 from 239,508 users
 
http://www.imdb.com/title/tt0418279/ 

****************************************************************
 
http://www.torrentforce.org/imghost/4/greyshadow_transformers1xvid1.png 
http://www.torrentforce.org/imghost/4/greyshadow_transformers1xvid2.png 
http://www.torrentforce.org/imghost/4/greyshadow_transformers1xvid3.png 
http://www.torrentforce.org/imghost/4/greyshadow_transformers1xvid4.png

****************************************************************

[IMG]http://www.torrentforce.org/imghost/2/greyshadow_mediainfo.png[/IMG]
General
Complete name                    : (1) Transformers 2007 720p BDRip XviD ac3 (avi) [TFRG].avi
Format                           : AVI
Format/Info                      : Audio Video Interleave
Format profile                   : OpenDML
File size                        : 3.34 GiB
Duration                         : 2h 23mn
Overall bit rate                 : 3328 Kbps
Writing library                  : VirtualDub build 32842/release

Video
ID                               : 0
Format                           : MPEG-4 Visual
Format profile                   : Simple@L5
Format settings, BVOP            : No
Format settings, QPel            : No
Format settings, GMC             : No warppoints
Format settings, Matrix          : Default (H.263)
Codec ID                         : XVID
Codec ID/Hint                    : XviD
Duration                         : 2h 23mn
Bit rate                         : 2999 Kbps
Width                            : 1280 pixels
Height                           : 528 pixels
Display aspect ratio             : 2.40:1
Frame rate                       : 23.976 fps
Color space                      : YUV
Chroma subsampling               : 4:2:0
Bit depth                        : 8 bits
Scan type                        : Progressive
Compression mode                 : Lossy
Bits/(Pixel*Frame)               : 0.185
Stream size                      : 3.00 GiB (90%)
Writing library                  : XviD 64

Audio
ID                               : 1
Format                           : AC-3
Format/Info                      : Audio Coding 3
Mode extension                   : CM (complete main)
Codec ID                         : 2000
Duration                         : 2h 23mn
Bit rate mode                    : Constant
Bit rate                         : 320 Kbps
Channel(s)                       : 6 channels
Channel positions                : Front: L C R, Side: L R, LFE
Sampling rate                    : 48.0 KHz
Bit depth                        : 16 bits
Compression mode                 : Lossy
Stream size                      : 328 MiB (10%)
Alignment                        : Aligned on interleaves
Interleave, duration             : 42 ms (1.00 video frame)
Interleave, preload duration     : 512 ms

****************************************************************

Video Source: Transformers 2007 1080p Blu-ray AVC TrueHD 5.1-KRaLiMaRKo (36.6GB)

Thanks: iptorrents

****************************************************************
****************************************************************
****************************************************************
 
http://www.torrentforce.org/imghost/4/greyshadow_transformers2.jpg

***************************************************************

FILM TITLE: Transformers: Revenge of the Fallen (2009)

***************************************************************

Genre: Action | Adventure | Sci-Fi    

Rated PG-13 for intense sequences of sci-fi action violence, 
language, some crude and sexual material, and brief drug material

Release: 19 June 2009 (UK) 

Director: Michael Bay

Writer: Ehren Kruger, Roberto Orci

Stars: Shia LaBeouf, Megan Fox and Josh Duhamel 

Country: USA

Language: English | Spanish 

Plot:
Sam Witwicky leaves the Autobots behind for a normal life. But 
when his mind is filled with cryptic symbols, the Decepticons 
target him and he is dragged back into the Transformers' war.

IMDB Rating: Ratings: 5.9/10 from 129,888 users
 
http://www.imdb.com/title/tt1055369/ 

****************************************************************
 
http://www.torrentforce.org/imghost/4/greyshadow_transformers2xvid1.png 
http://www.torrentforce.org/imghost/4/greyshadow_transformers2xvid2.png 
http://www.torrentforce.org/imghost/4/greyshadow_transformers2xvid3.png 
http://www.torrentforce.org/imghost/4/greyshadow_transformers2xvid4.png

****************************************************************

[IMG]http://www.torrentforce.org/imghost/2/greyshadow_mediainfo.png[/IMG]
General
Complete name                    : (2) Transformers-Revenge Of The Fallen 2009 720p BDRip XviD ac3 (avi) [TFRG].avi
Format                           : AVI
Format/Info                      : Audio Video Interleave
Format profile                   : OpenDML
File size                        : 3.50 GiB
Duration                         : 2h 30mn
Overall bit rate                 : 3329 Kbps
Writing library                  : VirtualDub build 32842/release

Video
ID                               : 0
Format                           : MPEG-4 Visual
Format profile                   : Simple@L5
Format settings, BVOP            : No
Format settings, QPel            : No
Format settings, GMC             : No warppoints
Format settings, Matrix          : Default (H.263)
Codec ID                         : XVID
Codec ID/Hint                    : XviD
Duration                         : 2h 30mn
Bit rate                         : 2999 Kbps
Width                            : 1280 pixels
Height                           : 528 pixels
Display aspect ratio             : 2.40:1
Frame rate                       : 23.976 fps
Color space                      : YUV
Chroma subsampling               : 4:2:0
Bit depth                        : 8 bits
Scan type                        : Progressive
Compression mode                 : Lossy
Bits/(Pixel*Frame)               : 0.185
Stream size                      : 3.15 GiB (90%)
Writing library                  : XviD 64

Audio
ID                               : 1
Format                           : AC-3
Format/Info                      : Audio Coding 3
Mode extension                   : CM (complete main)
Codec ID                         : 2000
Duration                         : 2h 30mn
Bit rate mode                    : Constant
Bit rate                         : 320 Kbps
Channel(s)                       : 6 channels
Channel positions                : Front: L C R, Side: L R, LFE
Sampling rate                    : 48.0 KHz
Bit depth                        : 16 bits
Compression mode                 : Lossy
Stream size                      : 344 MiB (10%)
Alignment                        : Aligned on interleaves
Interleave, duration             : 42 ms (1.00 video frame)
Interleave, preload duration     : 512 ms

****************************************************************

Video Source: Transformers Revenge Of The Fallen 2009 IMAX 1080p Blu-ray Remux AVC DTS-HD MA5.1-KRaLiMaRKo (37.7GB)

Thanks: iptorrents 

****************************************************************
****************************************************************
***************************************************************
 
http://www.torrentforce.org/imghost/4/greyshadow_transformers3.jpg

***************************************************************

FILM TITLE: Transformers: Dark of the Moon (2011)

***************************************************************

Genre: Action | Adventure | Sci-Fi   

Release: 29 June 2011 (UK)

Director: Michael Bay

Writer: Ehren Kruger

Stars: Shia LaBeouf, Rosie Huntington-Whiteley and Tyrese Gibson

Country: USA

Language: English 

Plot:
The Autobots learn of a Cybertronian spacecraft hidden on the Moon, and race against the Decepticons to reach it and to learn 

its secrets.

IMDB Rating: IMDB Rating: 6.6/10 (76,529 votes)
 
http://www.imdb.com/title/tt1399103/ 

****************************************************************
 
http://www.torrentforce.org/imghost/4/greyshadow_transformers3xvid1.png 
http://www.torrentforce.org/imghost/4/greyshadow_transformers3xvid2.png 
http://www.torrentforce.org/imghost/4/greyshadow_transformers3xvid3.png 
http://www.torrentforce.org/imghost/4/greyshadow_transformers3xvid4.png

****************************************************************

[IMG]http://www.torrentforce.org/imghost/2/greyshadow_mediainfo.png[/IMG]
General
Complete name                    : (3) Transformers-Dark Of The Moon 2011 720p BDRip XviD ac3 (avi) [TFRG].avi
Format                           : AVI
Format/Info                      : Audio Video Interleave
Format profile                   : OpenDML
File size                        : 3.59 GiB
Duration                         : 2h 34mn
Overall bit rate                 : 3328 Kbps
Writing library                  : VirtualDub build 32842/release

Video
ID                               : 0
Format                           : MPEG-4 Visual
Format profile                   : Simple@L5
Format settings, BVOP            : No
Format settings, QPel            : No
Format settings, GMC             : No warppoints
Format settings, Matrix          : Default (H.263)
Codec ID                         : XVID
Codec ID/Hint                    : XviD
Duration                         : 2h 34mn
Bit rate                         : 2999 Kbps
Width                            : 1280 pixels
Height                           : 528 pixels
Display aspect ratio             : 2.40:1
Frame rate                       : 23.976 fps
Color space                      : YUV
Chroma subsampling               : 4:2:0
Bit depth                        : 8 bits
Scan type                        : Progressive
Compression mode                 : Lossy
Bits/(Pixel*Frame)               : 0.185
Stream size                      : 3.23 GiB (90%)
Writing library                  : XviD 64

Audio
ID                               : 1
Format                           : AC-3
Format/Info                      : Audio Coding 3
Mode extension                   : CM (complete main)
Codec ID                         : 2000
Duration                         : 2h 34mn
Bit rate mode                    : Constant
Bit rate                         : 320 Kbps
Channel(s)                       : 6 channels
Channel positions                : Front: L C R, Side: L R, LFE
Sampling rate                    : 48.0 KHz
Bit depth                        : 16 bits
Compression mode                 : Lossy
Stream size                      : 353 MiB (10%)
Alignment                        : Aligned on interleaves
Interleave, duration             : 42 ms (1.00 video frame)
Interleave, preload duration     : 512 ms

****************************************************************

Video Source: Transformers:Dark Of The Moon 2011 BluRay 1080p AVC TrueHD7.1-CHDBits (43GB)

Thanks: CHP (chdbits.org)

****************************************************************

I provide a small sample, so please download this to check your 
compatibility first if you are unsure.

****************************************************************

A big thanks to all the sites out there who care and share and
who make it possible for you to download this torrent for free.

Greetz to Westy, Ripwyn, mustang, noir, Blackjesus, MXMG, The Stig 
and all the other outstanding members of our community of file 
sharers and a special mention to our friends at 1337x.

****************************************************************

[IMG]http://www.torrentforce.org/imghost/3/greyshadow_GreyShadow2sig.png[/IMG]

****************************************************************